<svg xmlns="http://www.w3.org/2000/svg" viewBox="0 0 64 64" role="img" aria-labelledby="title">
  <title id="title">Success Pool logo</title>
  <defs>
    <linearGradient id="spGradientOuter" x1="0%" y1="0%" x2="100%" y2="100%">
      <stop offset="0%" stop-color="#0B3BFF" />
      <stop offset="100%" stop-color="#00C2FF" />
    </linearGradient>
    <linearGradient id="spGradientInner" x1="30%" y1="0%" x2="90%" y2="100%">
      <stop offset="0%" stop-color="#F9FEFF" stop-opacity="0.95" />
      <stop offset="100%" stop-color="#D8F5FF" stop-opacity="0.85" />
    </linearGradient>
    <radialGradient id="spHighlight" cx="30%" cy="25%" r="60%">
      <stop offset="0%" stop-color="#FFFFFF" stop-opacity="0.9" />
      <stop offset="100%" stop-color="#FFFFFF" stop-opacity="0" />
    </radialGradient>
  </defs>
  <rect x="4" y="4" width="56" height="56" rx="18" fill="url(#spGradientOuter)" />
  <circle cx="32" cy="32" r="20" fill="url(#spGradientInner)" />
  <path
    d="M21.2 34.1c0-6.7 5.4-12.1 12.1-12.1 4.8 0 8.7 2.4 10.6 6.2 0.7 1.4-0.6 2.6-2.1 2.1-1.4-0.5-3-0.8-4.7-0.8-5.2 0-9.3 3.7-9.3 8.6 0 1.3 0.2 2.5 0.7 3.7 0.6 1.5-0.9 2.7-2.4 2-3-1.4-5-4.4-5-8.1Z"
    fill="#1298FF"
    opacity="0.9"
  />
  <path
    d="M42.9 27.2c1.6 2 2.5 4.6 2.5 7.5 0 7.3-5.5 12.7-13 12.7-3.6 0-6.8-1.3-9.3-3.6-1.1-1-0.6-2.8 1-3.2 2.6-0.6 5.2-1.4 7.5-2.6 5.7-2.8 9.6-6.9 11.3-10.4Z"
    fill="#0F77F8"
    opacity="0.85"
  />
  <circle cx="43" cy="21" r="6" fill="#F4FCFF" opacity="0.85" />
  <circle cx="28" cy="18" r="7" fill="url(#spHighlight)" opacity="0.7" />
  <path
    d="M21 48c3.2 2.2 7.1 3.4 11.4 3.4 6.2 0 11.6-2.6 15.4-6.8 1.1-1.2 0.3-3.1-1.3-3.3-7.7-1-14.3 2-21.6 4.6-1.6 0.6-2.3 2.6-0.7 3.7Z"
    fill="#0AC1FF"
    opacity="0.72"
  />
</svg>
